<svg xmlns="http://www.w3.org/2000/svg" viewBox="0 0 198.85 47.58"><defs><style>.cls-1{fill:#fefefe;fill-rule:evenodd;}.cls-2{font-size:48px;fill:#fff;font-family:ArialRoundedMTBold, Arial Rounded MT Bold;}.cls-3{letter-spacing:-0.04em;}</style></defs><title>logo-alt</title><g id="Layer_1" data-name="Layer 1"><path class="cls-1" d="M31.07,16.48l-7.78,9.63c-.16.2-.34.35-.5.55-.44.52-1.36,1.2-1,2,.2.53.71.66,1.26.87l6,2.32c1.2.32,1.85-.07,2.11-1.28l3.45-16.12c.17-.63.53-1.94-.55-1.66a13.14,13.14,0,0,0-1.83.93L21.41,19.63c-2.35,1.28-4.94,2.63-7.2,3.92-.5.28-1.49.68-1.62,1.14-.21.71,1,1,1.5,1.19,2,.73,3.5,1.66,5.41,0l.78-.62L27.68,19a20.68,20.68,0,0,1,3.39-2.48Z"/><path class="cls-1" d="M19.13,34A29.85,29.85,0,0,0,21,31.1c.63-1.57-1.27-2-2.24-2.4-.39-.15-1.55-.73-1.68,0a18.44,18.44,0,0,0,1.33,3.55c.12.29.23.57.35.85s.23.69.35.91Z"/><path class="cls-1" d="M44.41,28.89a10.9,10.9,0,0,1,2.29,3.53,11,11,0,0,1-18,11.93l3.63-3.63A5.83,5.83,0,0,0,34.21,42a5.95,5.95,0,0,0,6.44-1.29A5.91,5.91,0,0,0,42,34.33a5.71,5.71,0,0,0-1.23-1.89l3.69-3.55ZM3.1,18.7A11.14,11.14,0,0,1,0,11a11.05,11.05,0,0,1,18.84-7.8L15.21,6.86A5.83,5.83,0,0,0,13.3,5.58a5.91,5.91,0,0,0-7.74,7.68,6.1,6.1,0,0,0,1.23,1.89L3.1,18.7Zm41.31,0A11,11,0,0,0,36.48,0a11.21,11.21,0,0,0-7.8,3.23l3.63,3.63a5.79,5.79,0,0,1,1.9-1.28,5.91,5.91,0,0,1,6.51,9.57l3.69,3.55ZM3.1,28.89A11,11,0,0,0,18.84,44.35l-3.63-3.63a5.9,5.9,0,0,1-8.42-8.28L3.1,28.89Z"/><text class="cls-2" transform="translate(55 39.28)">A<tspan class="cls-3" x="34.52" y="0">r</tspan><tspan x="53.72" y="0">one</tspan></text></g></svg>